<?xml version="1.0" encoding="utf-8"?>
<!-- Generator: Adobe Illustrator 27.6.1, SVG Export Plug-In . SVG Version: 6.00 Build 0)  -->
<svg version="1.0" id="레이어_1" xmlns="http://www.w3.org/2000/svg" xmlns:xlink="http://www.w3.org/1999/xlink" x="0px"
	 y="0px" viewBox="0 0 50 50" style="enable-background:new 0 0 50 50;" xml:space="preserve">
<style type="text/css">
	.st0{fill:none;}
	.st1{fill:#FFFFFF;}
	.st2{fill:#999999;}
</style>
<rect class="st0" width="50" height="50"/>
<g>
	<path class="st1" d="M32.5,36.5h-15c-2.8,0-5-2.2-5-5v-13c0-2.8,2.2-5,5-5h15c2.8,0,5,2.2,5,5v13C37.5,34.3,35.3,36.5,32.5,36.5z"
		/>
	<path class="st2" d="M32.3,13.5H19.5h-1.8c-2.9,0-5.2,2.3-5.2,5.2v12.6c0,2.9,2.3,5.2,5.2,5.2h1.8h12.8c2.9,0,5.2-2.3,5.2-5.2V18.7
		C37.5,15.8,35.2,13.5,32.3,13.5z M35.4,31.5c0,1.8-1.4,3.2-3.1,3.2H20.5c-0.6,0-1-0.4-1-1v-7.6h4l-1.8,1.8
		c-0.2,0.2-0.2,0.5-0.2,0.7c0,0.2,0,0.3,0.2,0.5c0.2,0.2,0.3,0.3,0.7,0.3c0.3,0,0.5,0,0.7-0.2l3.2-3.2c0.2-0.2,0.2-0.3,0.2-0.5
		s0-0.3-0.2-0.5l-3.2-3.2c-0.3-0.3-0.8-0.3-1.2-0.2c-0.2,0.2-0.3,0.3-0.3,0.7c0,0.4,0,0.5,0.2,0.7l1.8,1.8h-4.2v-8.3
		c0-0.6,0.4-1,1-1h11.8c1.8,0,3.2,1.5,3.2,3.2V31.5z"/>
</g>
</svg>
