<?xml version="1.0" encoding="utf-8"?>
<!-- Generator: Adobe Illustrator 27.6.1, SVG Export Plug-In . SVG Version: 6.00 Build 0)  -->
<svg version="1.0" id="레이어_1" xmlns="http://www.w3.org/2000/svg" xmlns:xlink="http://www.w3.org/1999/xlink" x="0px"
	 y="0px" viewBox="0 0 50 50" style="enable-background:new 0 0 50 50;" xml:space="preserve">
<style type="text/css">
	.st0{fill:#FFFFFF;}
	.st1{fill:none;}
	.st2{fill:#999999;}
</style>
<path class="st0" d="M32.5,36.6h-15c-2.8,0-5-2.2-5-5V18.4c0-2.8,2.2-5,5-5h15c2.8,0,5,2.2,5,5v13.1C37.5,34.4,35.3,36.6,32.5,36.6z
	"/>
<rect class="st1" width="50" height="50"/>
<g>
	<path class="st2" d="M32.5,13.4h-15c-2.7,0-5,2.3-5,5v13.1c0,2.7,2.3,5,5,5h15c2.7,0,5-2.3,5-5V18.4C37.5,15.7,35.3,13.4,32.5,13.4
		z M17.4,34.4c-1.6,0-2.8-1.2-2.8-2.8V18.4c0-1.6,1.3-2.8,2.8-2.8h4.8v18.7H17.4z M35.2,31.6c0,1.6-1.2,2.8-2.8,2.8h-8V15.6h8
		c1.6,0,2.8,1.2,2.8,2.8V31.6z"/>
	<path class="st2" d="M16.9,20.4H20c0.5,0,0.9-0.4,0.9-0.9s-0.4-0.9-0.9-0.9h-3.1c-0.5,0-0.9,0.4-0.9,0.9S16.4,20.4,16.9,20.4z"/>
	<path class="st2" d="M20,21.8h-3.1c-0.5,0-0.9,0.4-0.9,0.9s0.4,0.9,0.9,0.9H20c0.5,0,0.9-0.4,0.9-0.9S20.5,21.8,20,21.8z"/>
	<path class="st2" d="M20,25.2h-3.1c-0.5,0-0.9,0.4-0.9,0.9s0.4,0.9,0.9,0.9H20c0.5,0,0.9-0.4,0.9-0.9C20.9,25.6,20.5,25.2,20,25.2z
		"/>
</g>
</svg>
